<?xml version="1.0" encoding="UTF-8"?><svg id="Layer_1" xmlns="http://www.w3.org/2000/svg" width="156.68" height="54.73" xmlns:xlink="http://www.w3.org/1999/xlink" viewBox="0 0 156.68 54.73"><defs><style>.cls-1{clip-path:url(#clippath-1);}.cls-2{clip-path:url(#clippath);}.cls-3{fill:none;}.cls-4{fill:#48322b;}</style><clipPath id="clippath"><rect class="cls-3" x="4.15" y="1.73" width="33.26" height="50.89"/></clipPath><clipPath id="clippath-1"><rect class="cls-3" x="37.42" y="1.73" width="33.26" height="50.89"/></clipPath></defs><g id="_Mirror_Repeat_"><g class="cls-2"><path class="cls-4" d="m37.42,8.12v-1.71s-.03-.02-.04-.03c-.4-.26-.82-.33-1.12.29-.13.27-.57.42-.9.57-1.01.47-1.41,2.05-.74,2.93.32.42.47.9.4,1.45-.12.87-.22,1.75-.33,2.65-1.14-.1-1.99-.47-2.78-1.17-3.99-3.51-8.03-6.96-12.05-10.43-.16-.14-.31-.29-.57-.54,6.07.05,12.1.1,18.13.15v-.42c-5.93-.05-11.86-.09-17.79-.15-.59,0-1.01.18-1.37.63-1.31,1.59-2.64,3.16-3.95,4.76-.22.27-.42.34-.77.25-1.7-.43-3.4-.85-5.12-1.19-1.11-.22-2.23-.08-3.21.56-1.29.85-1.4,2.15-.27,3.2.24.22.5.41.76.6,1.17.86,2.35,1.71,3.58,2.6-.89,1.07-1.72,2.09-2.58,3.08-.34.39-.3.67.02,1.03.73.82,1.43,1.67,2.1,2.45-.66.39-1.36.67-1.89,1.14-1.05.93-.88,2.26.31,2.99.31.19.64.33.97.49,1.36.65,2.72,1.31,4.09,1.95.24.11.53.11.79.2.9.29,1.88.37,2.57,1.18,6.99,8.17,14,16.32,21.01,24.48.33.39.53.55.74.5V9.29c-.25-.86-.27-.99,0-1.17Zm-31.77,1.8c-.29-.32-.55-.6-.89-.97.27-.1.45-.16.63-.23-.56.61.52.64.26,1.2Zm29.26,9.87c-1.09-.49-2.19-.99-3.3-1.49,1.85-1.25,3.02-.71,3.3,1.49ZM18.82,2.31c4.25,3.67,8.46,7.31,12.68,10.95-.01.05-.03.1-.04.15-.35-.07-.71-.08-1.03-.21-2.22-.85-4.41-1.79-6.66-2.57-2.98-1.04-6.01-1.97-9.02-2.94-.07-.02-.15-.05-.33-.11,1.49-1.79,2.92-3.51,4.39-5.27Zm10.47,11.07c.64.21,1.29.42,1.93.63-.75.37-.91.33-1.93-.63Zm1.61,5.24c-.09.31-.15.49-.21.72-.31-.07-.6-.13-1.02-.23.45-.18.8-.32,1.23-.49Zm-13.41.36c-.33.61-1.08-.27-1.15.66-.06-.06-.11-.12-.17-.17.12-.23.21-.61.38-.65.26-.07.59.09.94.17Zm-7.9-5.61c1.51,1.1,3.02,2.19,4.52,3.29,0,.04-.02.08-.03.12-2.33-.08-4.66-.16-7.13-.25.92-1.11,1.75-2.11,2.64-3.16Zm3.26,5.55c-1.04.22-2.08.46-3.13.68-.15.03-.4.04-.48-.05-.74-.82-1.45-1.66-2.26-2.61,2.65.08,5.13.11,7.61.28.56.04,1.08.59,1.62.91-.02.05-.04.1-.06.15-1.1.21-2.2.41-3.3.64Zm3.25,8.64c1.93.24,3.88.58,5.85.71,1.67.11,3.35,0,5.02-.08.44-.02.59.11.74.48,2.59,6.67,5.19,13.33,7.79,19.99.31.8.63,1.6.84,2.46-6.77-7.88-13.54-15.76-20.24-23.56Zm20.92,23.66s-.05.02-.08.03c-2.99-7.66-5.99-15.33-9.01-23.06.8-.09,1.57-.1,2.3-.28.59-.14,1.11-.53,1.69-.73.76-.26.89-.99,1.25-1.55.38-.61.76-1.24,1.07-1.9.34-.72.62-1.47.92-2.21.03,0,.06.02.09.03,0,1.52-.01,3.03,0,4.55,0,.67.11,1.32.63,1.83.07.07.06.23.06.35,0,1.27,0,2.54-.04,3.82,0,.27-.16.53-.21.81-.04.25-.06.51-.05.76,0,.25.06.51.09.76.02.16,0,.41.07.45.61.32.45.9.46,1.39.07,3.37.11,6.74.18,10.11,0,.26.23.51.36.76.07-.02.14-.05.2-.07v4.16Z"/></g></g><g id="_Mirror_Repeat_-2"><g class="cls-1"><path class="cls-4" d="m37.42,8.12v-1.71s.03-.02.04-.03c.4-.26.82-.33,1.12.29.13.27.57.42.9.57,1.01.47,1.41,2.05.74,2.93-.32.42-.47.9-.4,1.45.12.87.22,1.75.33,2.65,1.14-.1,1.99-.47,2.78-1.17,3.99-3.51,8.03-6.96,12.05-10.43.16-.14.31-.29.57-.54-6.07.05-12.1.1-18.13.15v-.42c5.93-.05,11.86-.09,17.79-.15.59,0,1.01.18,1.37.63,1.31,1.59,2.64,3.16,3.95,4.76.22.27.42.34.77.25,1.7-.43,3.4-.85,5.12-1.19,1.11-.22,2.23-.08,3.21.56,1.29.85,1.4,2.15.27,3.2-.24.22-.5.41-.76.6-1.17.86-2.35,1.71-3.58,2.6.89,1.07,1.72,2.09,2.58,3.08.34.39.3.67-.02,1.03-.73.82-1.43,1.67-2.1,2.45.66.39,1.36.67,1.89,1.14,1.05.93.88,2.26-.31,2.99-.31.19-.64.33-.97.49-1.36.65-2.72,1.31-4.09,1.95-.24.11-.53.11-.79.2-.9.29-1.88.37-2.57,1.18-6.99,8.17-14,16.32-21.01,24.48-.33.39-.53.55-.74.5V9.29c.25-.86.27-.99,0-1.17Zm31.77,1.8c.29-.32.55-.6.89-.97-.27-.1-.45-.16-.63-.23.56.61-.52.64-.26,1.2Zm-29.26,9.87c1.09-.49,2.19-.99,3.3-1.49-1.85-1.25-3.02-.71-3.3,1.49ZM56.02,2.31c-4.25,3.67-8.46,7.31-12.68,10.95.01.05.03.1.04.15.35-.07.71-.08,1.03-.21,2.22-.85,4.41-1.79,6.66-2.57,2.98-1.04,6.01-1.97,9.02-2.94.07-.02.15-.05.33-.11-1.49-1.79-2.92-3.51-4.39-5.27Zm-10.47,11.07c-.64.21-1.29.42-1.93.63.75.37.91.33,1.93-.63Zm-1.61,5.24c.09.31.15.49.21.72.31-.07.6-.13,1.02-.23-.45-.18-.8-.32-1.23-.49Zm13.41.36c.33.61,1.08-.27,1.15.66.06-.06.11-.12.17-.17-.12-.23-.21-.61-.38-.65-.26-.07-.59.09-.94.17Zm7.9-5.61c-1.51,1.1-3.02,2.19-4.52,3.29,0,.04.02.08.03.12,2.33-.08,4.66-.16,7.13-.25-.92-1.11-1.75-2.11-2.64-3.16Zm-3.26,5.55c1.04.22,2.08.46,3.13.68.15.03.4.04.48-.05.74-.82,1.45-1.66,2.26-2.61-2.65.08-5.13.11-7.61.28-.56.04-1.08.59-1.62.91.02.05.04.1.06.15,1.1.21,2.2.41,3.3.64Zm-3.25,8.64c-1.93.24-3.88.58-5.85.71-1.67.11-3.35,0-5.02-.08-.44-.02-.59.11-.74.48-2.59,6.67-5.19,13.33-7.79,19.99-.31.8-.63,1.6-.84,2.46,6.77-7.88,13.54-15.76,20.24-23.56Zm-20.92,23.66s.05.02.08.03c2.99-7.66,5.99-15.33,9.01-23.06-.8-.09-1.57-.1-2.3-.28-.59-.14-1.11-.53-1.69-.73-.76-.26-.89-.99-1.25-1.55-.38-.61-.76-1.24-1.07-1.9-.34-.72-.62-1.47-.92-2.21-.03,0-.06.02-.09.03,0,1.52.01,3.03,0,4.55,0,.67-.11,1.32-.63,1.83-.07.07-.06.23-.06.35,0,1.27,0,2.54.04,3.82,0,.27.16.53.21.81.04.25.06.51.05.76,0,.25-.06.51-.09.76-.02.16,0,.41-.07.45-.61.32-.45.9-.46,1.39-.07,3.37-.11,6.74-.18,10.11,0,.26-.23.51-.36.76-.07-.02-.14-.05-.2-.07v4.16Z"/></g></g><rect class="cls-4" x="57.06" y="18.61" width="2.64" height="1.56"/><rect class="cls-4" x="68.79" y="8.22" width="1.19" height="1.93" transform="translate(16.47 -36.62) rotate(33.34)"/><rect class="cls-4" x="36.74" y="7.72" width="1.56" height="2.38"/><rect class="cls-4" x="43.61" y="18.61" width="2.08" height=".99"/><rect class="cls-4" x="29.26" y="18.4" width="1.69" height="1.21"/><rect class="cls-4" x="29.18" y="13.33" width="2.16" height="1.64" transform="translate(4.15 -6.69) rotate(13.53)"/><rect class="cls-4" x="43.31" y="13.27" width="3.31" height=".88" transform="translate(-1.95 16.61) rotate(-20.49)"/><rect class="cls-4" x="4.57" y="8.91" width="2.94" height="1.19" transform="translate(5.56 -1.75) rotate(30)"/><rect class="cls-4" x="15.42" y="18.42" width="3.07" height="1.17" transform="translate(-7.68 12.54) rotate(-33.57)"/><rect class="cls-4" x="30.26" y="16.77" width="14.38" height="4.36"/><path class="cls-4" d="m54.44,48.54c0-.82.35-1.66.84-2.23.1-.15.22-.3.32-.25.1.07.05.2-.02.4-.07.25-.12.52-.12.84,0,1.12.92,1.91,2.33,1.91,1.81,0,3.97-1.34,7.59-4.91l8.56-8.63c-1.24-1.44-2.93-2.18-5.26-2.18-3.62,0-7.46,2.26-7.46,6.52,0,1.09.45,2.03,1.04,2.45.2.15.37.2.32.32-.02.1-.2.07-.42.02-1.71-.35-2.9-1.61-2.9-3.45,0-4.76,5.68-6.55,9.6-6.55,5.23,0,8.93,2.18,10.41,9.22l.72,3.47c.55,2.58,1.13,2.64,2.27,2.64.2,0,.58.29.58.44,0,.2-.32.2-.5.2-.79,0-2.53.16-3.43.16-1.09,0-2.4-.16-3.34-.16-.3,0-.42-.05-.42-.17s.12-.5.42-.5c1.09,0,1.79.15,1.79-1.09,0-.3-.05-.67-.12-1.09l-.35-1.69h-10.07l-.77.79c-4.41,4.49-6.65,6.1-8.88,6.1-1.76,0-2.73-1.14-2.73-2.6Zm20.04-12.13l-6.79,6.94h9.03l-.22-1.24c-.45-2.38-1.09-4.29-2.01-5.7Z"/><path class="cls-4" d="m128.42,36.76c0,2.28-2.63,3.3-4.74,3.65,1.93.32,3.92,1.14,3.92,3.62,0,3.4-3.62,4.61-9.47,4.61s-4.96-.05-6.3-.05c-1.44,0-2.28.05-3.25.05-.37,0-.52-.05-.52-.17,0-.17.17-.2.45-.2,1.91-.05,2.65-.89,3.45-2.78l1.36-3.17c1.96-4.64,4.69-6.84,7.24-7.46.12-.02.27-.02.32.02.07.07,0,.2-.15.32-1.54,1.12-3.03,3.1-4.76,7.34l-1.24,3.1c-.27.64-.45,1.12-.45,1.44,0,.74.92.79,3.84.79,3.52,0,6.6-1.04,6.6-4.09,0-2.48-2.5-3.17-4.44-3.17h-.32c-.45,0-.67-.02-.67-.2s.22-.2.67-.2h.22c1.91,0,5.43-.67,5.43-3.57,0-2.36-2.7-3.22-6.55-3.22-5.41,0-10.17,2.33-10.17,6.97,0,1.36.52,2.33,1.22,2.65.25.1.32.15.3.25-.02.1-.15.12-.42.1-1.81-.12-3.2-1.51-3.17-3.55.02-4.98,6.99-7.17,12.7-7.17s8.9,1.71,8.9,4.09Z"/><path class="cls-4" d="m86.3,48.95h-2.9c-.17,0-.28-.17-.28-.34,0-.16.1-.3.28-.3,0,0,.49-.05.49-.53v-6.7c0-.49-.43-.49-.43-.49-.24-.01-.34-.16-.34-.31,0-.17.12-.34.34-.34h2.34s0,7.83,0,7.83c0,.51.49.53.49.53.21,0,.29.18.29.35-.01.16-.12.3-.29.3Z"/><path class="cls-4" d="m90.34,48.95h-2.9c-.17,0-.28-.17-.28-.34,0-.16.1-.3.28-.3,0,0,.49-.05.49-.53v-6.7c0-.49-.43-.49-.43-.49-.24-.01-.34-.16-.34-.31,0-.17.12-.34.34-.34h2.34s0,7.83,0,7.83c0,.51.49.53.49.53.21,0,.29.18.29.35-.01.16-.12.3-.29.3Z"/><path class="cls-4" d="m97.1,48.95h-1.74c-.37,0-.52-.16-.53-.36h-.13c-.47.22-.97.56-1.51.56-.93,0-1.94-.56-1.94-1.59,0-1.34,1.41-1.92,2.44-2.41l1.07-.52c-.02-.95-.51-1.19-1.2-1.19-.72,0-1.1.36-1.1.76,0,.16.06.29.23.29.05,0,.1-.04.16-.04.04,0,.08.11.08.15,0,.41-.51.72-.91.72-.6,0-.92-.53-.92-1.07,0-1.3,1.53-1.81,2.96-1.81,1.12,0,2.61.51,2.61,1.85v3.42c0,.35.14.58.51.58.21,0,.29.13.29.28,0,.19-.14.41-.37.41Zm-2.37-3.57l-1.39,1.04c-.29.22-.47.45-.47.65,0,.43.35.63.74.63.41,0,1.12-.34,1.12-.34v-1.98Z"/><path class="cls-4" d="m105.04,48.95h-2.88c-.19,0-.29-.17-.29-.34s.08-.3.29-.3c0,0,.48-.05.48-.53v-3.09c0-.63-.37-1.07-1.09-1.07-.51,0-.78.21-1.07.48v3.67c-.01.51.48.53.48.53.18,0,.29.15.29.3,0,.17-.1.35-.29.35h-2.88c-.18,0-.28-.16-.28-.33s.08-.31.28-.31c0,0,.48-.05.48-.53v-4.07c0-.49-.43-.49-.43-.49-.23,0-.34-.16-.34-.31,0-.17.12-.34.34-.34h2.34s.01.64.01.64c.28-.33.81-.74,1.76-.74,1.1,0,2.31.41,2.31,1.85v3.45c0,.52.5.53.5.53.18,0,.28.13.3.29,0,.17-.08.36-.3.36Z"/><path class="cls-4" d="m134.1,48.44h-1.74c-.37,0-.52-.16-.53-.36h-.13c-.47.22-.97.55-1.51.55-.93,0-1.94-.55-1.94-1.59,0-1.34,1.41-1.92,2.44-2.41l1.07-.52c-.02-.95-.51-1.19-1.19-1.19-.72,0-1.1.36-1.1.76,0,.16.06.29.23.29.05,0,.1-.04.16-.04.04,0,.08.11.08.14,0,.41-.51.72-.9.72-.6,0-.92-.53-.92-1.07,0-1.3,1.53-1.81,2.96-1.81,1.12,0,2.61.51,2.61,1.85v3.41c0,.35.14.58.51.58.21,0,.29.13.29.28,0,.19-.14.41-.37.41Zm-2.36-3.57l-1.39,1.04c-.29.22-.47.45-.47.65,0,.43.35.63.74.63.41,0,1.12-.34,1.12-.34v-1.98Z"/><path class="cls-4" d="m141.01,42.56s-.42-.11-.68.49l-2.14,5.21c-.27.66-.58,1.38-1.03,1.94-.53.69-1.24,1.17-2.27,1.09-.75-.06-1.41-.43-1.53-1.25-.14-.89.45-1.31,1.09-1.31s.78.68.68.8c-.08.1-.16-.07-.3.08-.06.07-.1.23,0,.41.06.11.25.25.51.25.74,0,1.39-1.38,1.15-1.98l-2.1-5.24c-.25-.62-.68-.49-.68-.49-.25,0-.36-.18-.34-.35.01-.16.13-.3.34-.3h2.88c.25,0,.35.14.35.3-.01.17-.14.35-.35.35,0,0-.34.05-.12.54l1.34,3.22,1.35-3.22c.21-.49-.13-.54-.13-.54-.21,0-.34-.19-.34-.36,0-.14.1-.29.34-.29h1.98c.21,0,.33.16.34.33,0,.16-.1.33-.34.33Z"/><path class="cls-4" d="m146.9,46.19c0,.9-.76,2.45-3,2.45-1.76,0-3.11-1.46-3.11-3.38s1.38-3.37,3.11-3.37,2.53,1.07,2.73,2.41l-3.81,1.69c.08,1.09.65,1.62,1.48,1.62.68,0,1.24-.45,1.24-.93,0-.13-.1-.28-.24-.28-.08,0-.14.07-.22.07-.08,0-.16-.07-.16-.25,0-.42.36-1,1.01-1,.31,0,.64.13.82.42.1.16.14.34.14.54Zm-1.93-2.42c-.13-.62-.59-.84-.93-.84-.62,0-1.23.58-1.27,1.82l2.2-.98Z"/><path class="cls-4" d="m151.87,45.05c-.62,0-.93-.51-.93-.76s.11-.53.31-.64c.02-.01.02-.02.02-.05,0-.12-.35-.41-.86-.41-.24,0-.52.07-.81.24h-.02s-.01,4.02-.01,4.02c0,.51.49.53.49.53.2,0,.29.17.29.34,0,.16-.11.31-.29.31h-2.88c-.17,0-.28-.14-.28-.31s.08-.33.28-.33c0,0,.48-.05.48-.53v-4.07c0-.49-.43-.49-.43-.49-.24,0-.34-.18-.34-.34,0-.17.14-.31.34-.31h2.35s0,.29,0,.29c.35-.22.81-.4,1.36-.4,1.56,0,2.01.87,2.01,1.54,0,.76-.41,1.36-1.1,1.36Z"/></svg>