<svg width="326" height="250" viewBox="0 0 326 250" fill="none" xmlns="http://www.w3.org/2000/svg">
<mask id="mask0_146_75" style="mask-type:luminance" maskUnits="userSpaceOnUse" x="0" y="0" width="163" height="250">
<path d="M162.975 0H0V249.363H162.975V0Z" fill="white"/>
</mask>
<g mask="url(#mask0_146_75)">
<path d="M163.025 31.36V22.9809C163.025 22.9809 162.878 22.8829 162.829 22.8339C160.869 21.5599 158.811 21.2169 157.341 24.2549C156.704 25.5779 154.548 26.3129 152.931 27.0479C147.982 29.3509 146.022 37.093 149.305 41.4051C150.873 43.4631 151.608 45.8151 151.265 48.5101C150.677 52.7732 150.187 57.0852 149.648 61.4952C144.062 61.0052 139.897 59.1922 136.026 55.7622C116.475 38.563 96.6786 21.6579 76.9804 4.65473C76.1964 3.96872 75.4614 3.23371 74.1874 2.0087C103.931 2.2537 133.478 2.4987 163.025 2.74371V0.685693C133.968 0.440691 104.911 0.244686 75.8534 -0.0493164C72.9624 -0.0493164 70.9044 0.832692 69.1403 3.03771C62.7213 10.8288 56.2042 18.5218 49.7852 26.3619C48.7072 27.6849 47.7271 28.0279 46.0121 27.5869C37.6821 25.4799 29.352 23.4219 20.9239 21.7559C15.4849 20.6779 9.99681 21.3639 5.19477 24.4999C-1.12628 28.6649 -1.66529 35.035 3.87176 40.18C5.04777 41.2581 6.32178 42.1891 7.59579 43.1201C13.3288 47.3341 19.1109 51.4991 25.1379 55.8602C20.7769 61.1032 16.7099 66.1013 12.4958 70.9523C10.8298 72.8633 11.0258 74.2353 12.5938 75.9994C16.1709 80.0174 19.6009 84.1824 22.8839 88.0045C19.6499 89.9155 16.2199 91.2875 13.6228 93.5905C8.4778 98.1476 9.31081 104.665 15.1419 108.242C16.6609 109.173 18.2779 109.859 19.8949 110.643C26.559 113.828 33.223 117.062 39.9361 120.198C41.1121 120.737 42.5331 120.737 43.8071 121.178C48.2172 122.599 53.0192 122.991 56.4002 126.96C90.6515 166.993 125.001 206.929 159.35 246.913C160.967 248.824 161.947 249.608 162.976 249.363V37.093C161.751 32.879 161.653 32.242 162.976 31.36H163.025ZM7.35079 40.18C5.92978 38.612 4.65577 37.24 2.98975 35.427C4.31277 34.937 5.19477 34.643 6.07678 34.3C3.33275 37.289 8.6248 37.436 7.35079 40.18ZM150.726 88.5435C145.385 86.1424 139.995 83.6924 134.556 81.2424C143.621 75.1173 149.354 77.7634 150.726 88.5435ZM71.8844 2.84171C92.7095 20.8249 113.339 38.661 134.017 56.4972C133.968 56.7422 133.87 56.9872 133.821 57.2322C132.106 56.8892 130.342 56.8402 128.774 56.2032C117.896 52.0381 107.165 47.4321 96.1396 43.6101C81.5375 38.514 66.6903 33.957 51.9412 29.2039C51.5982 29.1059 51.2062 28.9589 50.3242 28.6649C57.6252 19.8939 64.6323 11.4658 71.8354 2.84171H71.8844ZM123.188 57.0852C126.324 58.1142 129.509 59.1432 132.645 60.1722C128.97 61.9852 128.186 61.7892 123.188 57.0852ZM131.077 82.7614C130.636 84.2804 130.342 85.1624 130.048 86.2895C128.529 85.9464 127.108 85.6524 125.05 85.1624C127.255 84.2804 128.97 83.5944 131.077 82.7614ZM65.3673 84.5254C63.7503 87.5145 60.0753 83.2024 59.7323 87.7595C59.4383 87.4655 59.1933 87.1715 58.8993 86.9265C59.4873 85.7994 59.9283 83.9374 60.7613 83.7414C62.0353 83.3984 63.6523 84.1824 65.3673 84.5744V84.5254ZM26.657 57.0362C34.056 62.4262 41.4551 67.7673 48.8052 73.1573C48.8052 73.3533 48.7072 73.5493 48.6582 73.7453C37.2411 73.3533 25.824 72.9613 13.7208 72.5203C18.2289 67.0813 22.2959 62.1812 26.657 57.0362ZM42.6311 84.2314C37.5351 85.3094 32.439 86.4855 27.294 87.5635C26.559 87.7105 25.3339 87.7595 24.9419 87.3185C21.3159 83.3004 17.8369 79.1844 13.8678 74.5293C26.853 74.9213 39.0051 75.0684 51.1572 75.9014C53.9012 76.0974 56.4492 78.7924 59.0952 80.3604C58.9972 80.6054 58.8992 80.8504 58.8012 81.0954C53.4112 82.1244 48.0212 83.1044 42.6311 84.2314ZM58.5562 126.568C68.0133 127.744 77.5684 129.41 87.2215 130.047C95.4046 130.586 103.637 130.047 111.82 129.655C113.976 129.557 114.711 130.194 115.446 132.007C128.137 164.69 140.877 197.324 153.617 229.959C155.136 233.879 156.704 237.799 157.733 242.013C124.56 203.4 91.3865 164.788 58.5562 126.568ZM161.065 242.503C161.065 242.503 160.82 242.601 160.673 242.65C146.022 205.115 131.322 167.532 116.524 129.655C120.444 129.214 124.217 129.165 127.794 128.283C130.685 127.597 133.233 125.686 136.075 124.706C139.799 123.432 140.436 119.855 142.2 117.111C144.062 114.122 145.924 111.035 147.443 107.801C149.109 104.273 150.481 100.598 151.951 96.9715C152.098 96.9715 152.245 97.0696 152.392 97.1186C152.392 104.567 152.343 111.966 152.392 119.414C152.392 122.697 152.931 125.882 155.479 128.381C155.822 128.724 155.773 129.508 155.773 130.096C155.773 136.319 155.773 142.542 155.577 148.814C155.577 150.137 154.793 151.411 154.548 152.783C154.352 154.008 154.254 155.282 154.303 156.507C154.303 157.732 154.597 159.006 154.744 160.231C154.842 161.015 154.744 162.24 155.087 162.436C158.076 164.004 157.292 166.846 157.341 169.247C157.684 185.76 157.88 202.273 158.223 218.787C158.223 220.061 159.35 221.286 159.987 222.511C160.33 222.413 160.673 222.266 160.967 222.168V242.552L161.065 242.503Z" fill="#441E74"/>
</g>
<mask id="mask1_146_75" style="mask-type:luminance" maskUnits="userSpaceOnUse" x="163" y="0" width="163" height="250">
<path d="M325.999 0H163.024V249.363H325.999V0Z" fill="white"/>
</mask>
<g mask="url(#mask1_146_75)">
<path d="M163.024 31.36V22.9809C163.024 22.9809 163.171 22.8829 163.22 22.8339C165.18 21.5599 167.238 21.2169 168.708 24.2549C169.345 25.5779 171.501 26.3129 173.118 27.0479C178.067 29.3509 180.027 37.093 176.744 41.4051C175.176 43.4631 174.441 45.8151 174.784 48.5101C175.372 52.7732 175.862 57.0852 176.401 61.4952C181.987 61.0052 186.152 59.1922 190.023 55.7622C209.574 38.563 229.371 21.6579 249.069 4.65473C249.853 3.96872 250.588 3.23371 251.862 2.0087C222.118 2.2537 192.571 2.4987 163.024 2.74371V0.685693C192.081 0.440691 221.138 0.244686 250.196 -0.0493164C253.087 -0.0493164 255.145 0.832692 256.909 3.03771C263.328 10.8288 269.845 18.5218 276.264 26.3619C277.342 27.6849 278.322 28.0279 280.037 27.5869C288.367 25.4799 296.697 23.4219 305.125 21.7559C310.564 20.6779 316.052 21.3639 320.854 24.4999C327.175 28.6649 327.714 35.035 322.177 40.18C321.001 41.2581 319.727 42.1891 318.453 43.1201C312.72 47.3341 306.938 51.4991 300.911 55.8602C305.272 61.1032 309.339 66.1013 313.553 70.9523C315.219 72.8633 315.023 74.2353 313.455 75.9994C309.878 80.0174 306.448 84.1824 303.165 88.0045C306.399 89.9155 309.829 91.2875 312.426 93.5905C317.571 98.1476 316.738 104.665 310.907 108.242C309.388 109.173 307.771 109.859 306.154 110.643C299.49 113.828 292.826 117.062 286.113 120.198C284.937 120.737 283.516 120.737 282.242 121.178C277.832 122.599 273.03 122.991 269.649 126.96C235.398 166.993 201.048 206.929 166.699 246.913C165.082 248.824 164.102 249.608 163.073 249.363V37.093C164.298 32.879 164.396 32.242 163.073 31.36H163.024ZM318.698 40.18C320.119 38.612 321.393 37.24 323.059 35.427C321.736 34.937 320.854 34.643 319.972 34.3C322.716 37.289 317.424 37.436 318.698 40.18ZM175.323 88.5435C180.664 86.1424 186.054 83.6924 191.493 81.2424C182.428 75.1173 176.695 77.7634 175.323 88.5435ZM254.165 2.89071C233.34 20.8739 212.71 38.71 192.032 56.5462C192.081 56.7912 192.179 57.0362 192.228 57.2812C193.943 56.9382 195.707 56.8892 197.275 56.2522C208.153 52.0871 218.884 47.4811 229.91 43.6591C244.512 38.563 259.359 34.006 274.108 29.2529C274.451 29.1549 274.843 29.0079 275.725 28.7139C268.424 19.9429 261.417 11.5148 254.214 2.89071H254.165ZM202.861 57.1342C199.725 58.1632 196.54 59.1922 193.404 60.2212C197.079 62.0342 197.863 61.8382 202.861 57.1342ZM194.972 82.8104C195.413 84.3294 195.707 85.2114 196.001 86.3385C197.52 85.9955 198.941 85.7014 200.999 85.2114C198.794 84.3294 197.079 83.6434 194.972 82.8104ZM260.682 84.5744C262.299 87.5635 265.974 83.2514 266.317 87.8085C266.611 87.5145 266.856 87.2205 267.15 86.9755C266.562 85.8484 266.121 83.9864 265.288 83.7904C264.014 83.4474 262.397 84.2314 260.682 84.6234V84.5744ZM299.392 57.0852C291.993 62.4752 284.594 67.8163 277.244 73.2063C277.244 73.4023 277.342 73.5983 277.391 73.7943C288.808 73.4023 300.225 73.0103 312.328 72.5693C307.82 67.1303 303.753 62.2302 299.392 57.0852ZM283.418 84.2804C288.514 85.3584 293.61 86.5344 298.755 87.6125C299.49 87.7595 300.715 87.8085 301.107 87.3675C304.733 83.3494 308.212 79.2334 312.181 74.5783C299.196 74.9703 287.044 75.1174 274.892 75.9504C272.148 76.1464 269.6 78.8414 266.954 80.4094C267.052 80.6544 267.15 80.8994 267.248 81.1444C272.638 82.1734 278.028 83.1534 283.418 84.2804ZM267.493 126.617C258.036 127.793 248.481 129.459 238.828 130.096C230.645 130.635 222.412 130.096 214.229 129.704C212.073 129.606 211.338 130.243 210.603 132.056C197.912 164.739 185.172 197.373 172.432 230.008C170.913 233.928 169.345 237.848 168.316 242.062C201.489 203.449 234.663 164.837 267.493 126.617ZM164.984 242.552C164.984 242.552 165.229 242.65 165.376 242.699C180.027 205.165 194.727 167.581 209.525 129.704C205.605 129.263 201.832 129.214 198.255 128.332C195.364 127.646 192.816 125.735 189.974 124.755C186.25 123.481 185.613 119.904 183.849 117.16C181.987 114.171 180.125 111.084 178.606 107.85C176.94 104.322 175.568 100.647 174.098 97.0206C173.951 97.0206 173.804 97.1185 173.657 97.1675C173.657 104.616 173.706 112.015 173.657 119.463C173.657 122.746 173.118 125.931 170.57 128.43C170.227 128.773 170.276 129.557 170.276 130.145C170.276 136.368 170.276 142.591 170.472 148.863C170.472 150.186 171.256 151.46 171.501 152.832C171.697 154.057 171.795 155.331 171.746 156.556C171.746 157.781 171.452 159.055 171.305 160.28C171.207 161.064 171.305 162.289 170.962 162.485C167.973 164.053 168.757 166.895 168.708 169.296C168.365 185.809 168.169 202.322 167.826 218.836C167.826 220.11 166.699 221.335 166.062 222.56C165.719 222.462 165.376 222.315 165.082 222.217V242.601L164.984 242.552Z" fill="#441E74"/>
</g>
<path d="M272.198 82.7622H259.261V90.4063H272.198V82.7622Z" fill="#441E74"/>
<path d="M324.716 34.2014L319.844 30.9966L314.647 38.8973L319.518 42.102L324.716 34.2014Z" fill="#441E74"/>
<path d="M167.287 29.3511H159.643V41.0132H167.287V29.3511Z" fill="#441E74"/>
<path d="M203.548 82.7622H193.355V87.6132H203.548V82.7622Z" fill="#441E74"/>
<path d="M131.272 81.6846H122.991V87.6136H131.272V81.6846Z" fill="#441E74"/>
<path d="M134.024 58.2257L123.733 55.7495L121.853 63.5626L132.144 66.0388L134.024 58.2257Z" fill="#441E74"/>
<path d="M206.813 53.8221L191.62 59.4995L193.129 63.5387L208.322 57.8613L206.813 53.8221Z" fill="#441E74"/>
<path d="M16.9626 39.1684L4.48657 31.9653L1.57104 37.0152L14.0471 44.2182L16.9626 39.1684Z" fill="#441E74"/>
<path d="M67.4174 78.0978L54.8833 86.416L58.0534 91.1929L70.5875 82.8747L67.4174 78.0978Z" fill="#441E74"/>
<path d="M198.404 73.7451H127.941V95.1093H198.404V73.7451Z" fill="#441E74"/>
</svg>
