<?xml version="1.0" encoding="UTF-8"?><svg id="Layer_1" xmlns="http://www.w3.org/2000/svg" width="82.85" height="73.07" xmlns:xlink="http://www.w3.org/1999/xlink" viewBox="0 0 82.85 73.07"><defs><style>.cls-1{clip-path:url(#clippath-1);}.cls-2{clip-path:url(#clippath);}.cls-3{fill:none;}.cls-4{fill:#48322b;}</style><clipPath id="clippath"><rect class="cls-3" x="8.16" y="13.17" width="33.26" height="50.89"/></clipPath><clipPath id="clippath-1"><rect class="cls-3" x="41.43" y="13.17" width="33.26" height="50.89"/></clipPath></defs><g id="_Mirror_Repeat_"><g class="cls-2"><path class="cls-4" d="m41.43,19.57v-1.71s-.03-.02-.04-.03c-.4-.26-.82-.33-1.12.29-.13.27-.57.42-.9.57-1.01.47-1.41,2.05-.74,2.93.32.42.47.9.4,1.45-.12.87-.22,1.75-.33,2.65-1.14-.1-1.99-.47-2.78-1.17-3.99-3.51-8.03-6.96-12.05-10.43-.16-.14-.31-.29-.57-.54,6.07.05,12.1.1,18.13.15v-.42c-5.93-.05-11.86-.09-17.79-.15-.59,0-1.01.18-1.37.63-1.31,1.59-2.64,3.16-3.95,4.76-.22.27-.42.34-.77.25-1.7-.43-3.4-.85-5.12-1.19-1.11-.22-2.23-.08-3.21.56-1.29.85-1.4,2.15-.27,3.2.24.22.5.41.76.6,1.17.86,2.35,1.71,3.58,2.6-.89,1.07-1.72,2.09-2.58,3.08-.34.39-.3.67.02,1.03.73.82,1.43,1.67,2.1,2.45-.66.39-1.36.67-1.89,1.14-1.05.93-.88,2.26.31,2.99.31.19.64.33.97.49,1.36.65,2.72,1.31,4.09,1.95.24.11.53.11.79.2.9.29,1.88.37,2.57,1.18,6.99,8.17,14,16.32,21.01,24.48.33.39.53.55.74.5V20.74c-.25-.86-.27-.99,0-1.17Zm-31.77,1.8c-.29-.32-.55-.6-.89-.97.27-.1.45-.16.63-.23-.56.61.52.64.26,1.2Zm29.26,9.87c-1.09-.49-2.19-.99-3.3-1.49,1.85-1.25,3.02-.71,3.3,1.49ZM22.83,13.75c4.25,3.67,8.46,7.31,12.68,10.95-.01.05-.03.1-.04.15-.35-.07-.71-.08-1.03-.21-2.22-.85-4.41-1.79-6.66-2.57-2.98-1.04-6.01-1.97-9.02-2.94-.07-.02-.15-.05-.33-.11,1.49-1.79,2.92-3.51,4.39-5.27Zm10.47,11.07c.64.21,1.29.42,1.93.63-.75.37-.91.33-1.93-.63Zm1.61,5.24c-.09.31-.15.49-.21.72-.31-.07-.6-.13-1.02-.23.45-.18.8-.32,1.23-.49Zm-13.41.36c-.33.61-1.08-.27-1.15.66-.06-.06-.11-.12-.17-.17.12-.23.21-.61.38-.65.26-.07.59.09.94.17Zm-7.9-5.61c1.51,1.1,3.02,2.19,4.52,3.29,0,.04-.02.08-.03.12-2.33-.08-4.66-.16-7.13-.25.92-1.11,1.75-2.11,2.64-3.16Zm3.26,5.55c-1.04.22-2.08.46-3.13.68-.15.03-.4.04-.48-.05-.74-.82-1.45-1.66-2.26-2.61,2.65.08,5.13.11,7.61.28.56.04,1.08.59,1.62.91-.02.05-.04.1-.06.15-1.1.21-2.2.41-3.3.64Zm3.25,8.64c1.93.24,3.88.58,5.85.71,1.67.11,3.35,0,5.02-.08.44-.02.59.11.74.48,2.59,6.67,5.19,13.33,7.79,19.99.31.8.63,1.6.84,2.46-6.77-7.88-13.54-15.76-20.24-23.56Zm20.92,23.66s-.05.02-.08.03c-2.99-7.66-5.99-15.33-9.01-23.06.8-.09,1.57-.1,2.3-.28.59-.14,1.11-.53,1.69-.73.76-.26.89-.99,1.25-1.55.38-.61.76-1.24,1.07-1.9.34-.72.62-1.47.92-2.21.03,0,.06.02.09.03,0,1.52-.01,3.03,0,4.55,0,.67.11,1.32.63,1.83.07.07.06.23.06.35,0,1.27,0,2.54-.04,3.82,0,.27-.16.53-.21.81-.04.25-.06.51-.05.76,0,.25.06.51.09.76.02.16,0,.41.07.45.61.32.45.9.46,1.39.07,3.37.11,6.74.18,10.11,0,.26.23.51.36.76.07-.02.14-.05.2-.07v4.16Z"/></g></g><g id="_Mirror_Repeat_-2"><g class="cls-1"><path class="cls-4" d="m41.43,19.57v-1.71s.03-.02.04-.03c.4-.26.82-.33,1.12.29.13.27.57.42.9.57,1.01.47,1.41,2.05.74,2.93-.32.42-.47.9-.4,1.45.12.87.22,1.75.33,2.65,1.14-.1,1.99-.47,2.78-1.17,3.99-3.51,8.03-6.96,12.05-10.43.16-.14.31-.29.57-.54-6.07.05-12.1.1-18.13.15v-.42c5.93-.05,11.86-.09,17.79-.15.59,0,1.01.18,1.37.63,1.31,1.59,2.64,3.16,3.95,4.76.22.27.42.34.77.25,1.7-.43,3.4-.85,5.12-1.19,1.11-.22,2.23-.08,3.21.56,1.29.85,1.4,2.15.27,3.2-.24.22-.5.41-.76.6-1.17.86-2.35,1.71-3.58,2.6.89,1.07,1.72,2.09,2.58,3.08.34.39.3.67-.02,1.03-.73.82-1.43,1.67-2.1,2.45.66.39,1.36.67,1.89,1.14,1.05.93.88,2.26-.31,2.99-.31.19-.64.33-.97.49-1.36.65-2.72,1.31-4.09,1.95-.24.11-.53.11-.79.2-.9.29-1.88.37-2.57,1.18-6.99,8.17-14,16.32-21.01,24.48-.33.39-.53.55-.74.5V20.74c.25-.86.27-.99,0-1.17Zm31.77,1.8c.29-.32.55-.6.89-.97-.27-.1-.45-.16-.63-.23.56.61-.52.64-.26,1.2Zm-29.26,9.87c1.09-.49,2.19-.99,3.3-1.49-1.85-1.25-3.02-.71-3.3,1.49Zm16.09-17.48c-4.25,3.67-8.46,7.31-12.68,10.95.01.05.03.1.04.15.35-.07.71-.08,1.03-.21,2.22-.85,4.41-1.79,6.66-2.57,2.98-1.04,6.01-1.97,9.02-2.94.07-.02.15-.05.33-.11-1.49-1.79-2.92-3.51-4.39-5.27Zm-10.47,11.07c-.64.21-1.29.42-1.93.63.75.37.91.33,1.93-.63Zm-1.61,5.24c.09.31.15.49.21.72.31-.07.6-.13,1.02-.23-.45-.18-.8-.32-1.23-.49Zm13.41.36c.33.61,1.08-.27,1.15.66.06-.06.11-.12.17-.17-.12-.23-.21-.61-.38-.65-.26-.07-.59.09-.94.17Zm7.9-5.61c-1.51,1.1-3.02,2.19-4.52,3.29,0,.04.02.08.03.12,2.33-.08,4.66-.16,7.13-.25-.92-1.11-1.75-2.11-2.64-3.16Zm-3.26,5.55c1.04.22,2.08.46,3.13.68.15.03.4.04.48-.05.74-.82,1.45-1.66,2.26-2.61-2.65.08-5.13.11-7.61.28-.56.04-1.08.59-1.62.91.02.05.04.1.06.15,1.1.21,2.2.41,3.3.64Zm-3.25,8.64c-1.93.24-3.88.58-5.85.71-1.67.11-3.35,0-5.02-.08-.44-.02-.59.11-.74.48-2.59,6.67-5.19,13.33-7.79,19.99-.31.8-.63,1.6-.84,2.46,6.77-7.88,13.54-15.76,20.24-23.56Zm-20.92,23.66s.05.02.08.03c2.99-7.66,5.99-15.33,9.01-23.06-.8-.09-1.57-.1-2.3-.28-.59-.14-1.11-.53-1.69-.73-.76-.26-.89-.99-1.25-1.55-.38-.61-.76-1.24-1.07-1.9-.34-.72-.62-1.47-.92-2.21-.03,0-.06.02-.09.03,0,1.52.01,3.03,0,4.55,0,.67-.11,1.32-.63,1.83-.07.07-.06.23-.06.35,0,1.27,0,2.54.04,3.82,0,.27.16.53.21.81.04.25.06.51.05.76,0,.25-.06.51-.09.76-.02.16,0,.41-.07.45-.61.32-.45.9-.46,1.39-.07,3.37-.11,6.74-.18,10.11,0,.26-.23.51-.36.76-.07-.02-.14-.05-.2-.07v4.16Z"/></g></g><rect class="cls-4" x="61.07" y="30.06" width="2.64" height="1.56"/><rect class="cls-4" x="72.8" y="19.66" width="1.19" height="1.93" transform="translate(23.42 -36.94) rotate(33.34)"/><rect class="cls-4" x="40.74" y="19.16" width="1.56" height="2.38"/><rect class="cls-4" x="47.62" y="30.06" width="2.08" height=".99"/><rect class="cls-4" x="33.26" y="29.84" width="1.69" height="1.21"/><rect class="cls-4" x="33.19" y="24.78" width="2.16" height="1.64" transform="translate(6.94 -7.31) rotate(13.53)"/><rect class="cls-4" x="47.32" y="24.71" width="3.31" height=".88" transform="translate(-5.71 18.73) rotate(-20.49)"/><rect class="cls-4" x="8.58" y="20.35" width="2.94" height="1.19" transform="translate(11.82 -2.22) rotate(30)"/><rect class="cls-4" x="19.43" y="29.86" width="3.07" height="1.17" transform="translate(-13.34 16.67) rotate(-33.57)"/><rect class="cls-4" x="34.27" y="28.22" width="14.38" height="4.36"/></svg>